# AST/ASF file generated using VICON BodyLanguage
# -----------------------------------------------
:version 1.10
:name VICON
:units
  mass 1.0
  length 0.45
  angle deg
:documentation
   .ast/.asf automatically generated from VICON data using
   VICON BodyBuilder and BodyLanguage model FoxedUp or BRILLIANT.MOD
:root
   order TX TY TZ RX RY RZ
   axis XYZ
   position 0 0 0  
   orientation 0 0 0 
:bonedata
  begin
     id 1 
     name lhipjoint
     direction 0.677091 -0.635792 0.370561 
     length 2.74323 
     axis 0 0 0  XYZ
  end
  begin
     id 2 
     name lfemur
     direction 0.34202 -0.939693 0  
     length 7.44995  
     axis 0 0 20  XYZ
    dof rx ry rz
    limits (-160.0 20.0)
           (-70.0 70.0)
           (-60.0 70.0)
  end
  begin
     id 3 
     name ltibia
     direction 0.34202 -0.939693 0   
     length 7.34467   
     axis 0 0 20   XYZ
    dof rx
    limits (-10.0 170.0)
  end
  begin
     id 4 
     name lfoot
     direction 0.101953 -0.280114 0.954537   
     length 1.72105   
     axis -90 7.62852e-016 20   XYZ
    dof rx rz
    limits (-45.0 90.0)
           (-70.0 20.0)
  end
  begin
     id 5 
     name ltoes
     direction 1.53537e-011 -4.21915e-011 1   
     length 0.865872   
     axis -90 7.62852e-016 20   XYZ
    dof rx
    limits (-90.0 20.0)
  end
  begin
     id 6 
     name rhipjoint
     direction -0.695735 -0.620586 0.361699   
     length 2.81045  
     axis 0 0 0  XYZ 
  end
  begin
     id 7 
     name rfemur
     direction -0.34202 -0.939693 0   
     length 7.29387   
     axis 0 0 -20   XYZ
    dof rx ry rz
    limits (-160.0 20.0)
           (-70.0 70.0)
           (-70.0 60.0)
  end
  begin
     id 8 
     name rtibia
     direction -0.34202 -0.939693 0   
     length 7.44935   
     axis 0 0 -20   XYZ
    dof rx
    limits (-10.0 170.0)
 end
 begin
     id 9 
     name rfoot
     direction -0.104163 -0.286184 0.952496   
     length 1.77731  
     axis -90 -7.62852e-016 -20   XYZ
    dof rx rz
    limits (-45.0 90.0)
           (-20.0 70.0)
  end
  begin
     id 10 
     name rtoes
     direction -1.5355e-011 -4.21888e-011 1   
     length 0.892424   
     axis -90 -7.62852e-016 -20   XYZ
    dof rx
    limits (-90.0 20.0)
  end
  begin
     id 11 
     name lowerback
     direction 0.0100202 0.997226 -0.0737589   
     length 2.16892   
     axis 0 0 0   XYZ
    dof rx ry rz
    limits (-20.0 45.0)
           (-30.0 30.0)
           (-30.0 30.0)
  end
  begin
     id 12 
     name upperback
     direction 0.00432398 0.999988 -0.00215019   
     length 2.17326   
     axis 0 0 0   XYZ
    dof rx ry rz
    limits (-20.0 45.0)
           (-30.0 30.0)
           (-30.0 30.0)
  end
  begin
     id 13 
     name thorax
     direction -0.00195047 0.999485 0.0320434   
     length 2.18139   
     axis 0 0 0   XYZ
    dof rx ry rz
    limits (-20.0 45.0)
           (-30.0 30.0)
           (-30.0 30.0)
  end
  begin
     id 14 
     name lowerneck
     direction 0.00782762 0.986241 0.165128   
     length 1.88415   
     axis 0 0 0   XYZ
    dof rx ry rz
    limits (-20.0 45.0)
           (-30.0 30.0)
           (-30.0 30.0)
  end
  begin
     id 15 
     name upperneck
     direction 0.00988667 0.981098 -0.193258   
     length 1.9242   
     axis 0 0 0   XYZ
    dof rx ry rz
    limits (-20.0 45.0)
           (-30.0 30.0)
           (-30.0 30.0)
  end
  begin
     id 16
     name head
     direction 0.00252199 0.996513 -0.0833958  
     length 1.93887  
     axis 0 0 0   XYZ
    dof rx ry rz
    limits (-20.0 45.0)
           (-30.0 30.0)
           (-30.0 30.0)
  end
  begin
     id 17 
     name lclavicle
     direction 0.929492 0.368193 -0.0218667  
     length 3.5955  
     axis 0 0 0   XYZ
    dof ry rz
    limits (-20.0 10.0)
           (0.0 20.0)
  end
  begin
     id 18 
     name lhumerus
     direction 1 -4.48972e-011 1.41911e-027   
     length 5.2795   
     axis 180 -30 -90   XYZ
    dof rx ry rz
    limits (-60.0 90.0)
           (-90.0 90.0)
           (-90.0 90.0)
  end
  begin
     id 19
     name lradius
     direction 1 -4.48963e-011 7.05772e-027   
     length 3.53504   
     axis 180 -30 -90   XYZ
    dof rx
    limits (-10.0 170.0)
  end
  begin
     id 20
     name lwrist
     direction 1 -4.48957e-011 9.54866e-027   
     length 1.76752   
     axis -7.69462e-015 90 90   XYZ
    dof ry
    limits (-180.0 0.0)
 end
  begin
     id 21 
     name lhand
     direction 1 -4.48979e-011 1.90973e-026   
     length 0.667948   
     axis -1.21857e-014 90 90   XYZ
    dof rx rz
    limits (-90.0 90.0)
           (-45.0 45.0)
  end
  begin
     id 22 
     name lfingers
     direction 1 -4.48987e-011 3.81946e-026   
     length 0.538517   
     axis -2.43714e-014 90 90   XYZ
    dof rx
    limits (0.0 90.0)
  end
  begin
     id 23
     name lthumb
     direction 0.707107 -6.34962e-011 0.707107   
     length 0.773206   
     axis -90 45 2.85299e-015   XYZ
    dof rx rz
    limits (-45.0 45.0)
           (-45.0 45.0)
  end
  begin
     id 24 
     name rclavicle
     direction -0.898763 0.414256 -0.143584   
     length 3.5176  
     axis 0 0 0   XYZ 
    dof ry rz
    limits (-10.0 20.0)
           (-20.0 0.0)
  end
  begin
     id 25 
     name rhumerus
     direction -1 -4.48971e-011 1.129e-027  
     length 5.25035   
     axis 180 30 90   XYZ
    dof rx ry rz
    limits (-90.0 60.0)
           (-90.0 90.0)
           (-90.0 90.0)
  end
  begin
     id 26 
     name rradius
     direction -1 -4.48955e-011 6.34664e-027   
     length 3.58884   
     axis 180 30 90   XYZ
    dof rx
    limits (-10.0 170.0)
  end
  begin
     id 27 
     name rwrist
     direction -1 -4.48966e-011 9.54866e-027   
     length 1.79442   
     axis -7.69462e-015 -90 -90   XYZ
    dof ry
    limits (-180.0 0.0)
  end
  begin
     id 28
     name rhand
     direction -1 -4.48973e-011 1.90973e-026   
     length 0.779235   
     axis -1.21857e-014 -90 -90   XYZ
    dof rx rz
    limits (-90.0 90.0)
           (-45.0 45.0)
  end
  begin
     id 29
     name rfingers
     direction -1 -4.48984e-011 3.81946e-026   
     length 0.62824   
     axis -2.43714e-014 -90 -90   XYZ
    dof rx
    limits (0.0 90.0)
  end
  begin
     id 30
     name rthumb
     direction -0.707107 -6.34968e-011 0.707107   
     length 0.90203   
     axis -90 -45 -2.85299e-015   XYZ
    dof rx rz
    limits (-45.0 45.0)
           (-45.0 45.0)
  end
:hierarchy
  begin
    root lhipjoint rhipjoint lowerback
    lhipjoint lfemur
    lfemur ltibia
    ltibia lfoot
    lfoot ltoes
    rhipjoint rfemur
    rfemur rtibia
    rtibia rfoot
    rfoot rtoes
    lowerback upperback
    upperback thorax
    thorax lowerneck lclavicle rclavicle
    lowerneck upperneck
    upperneck head
    lclavicle lhumerus
    lhumerus lradius
    lradius lwrist
    lwrist lhand lthumb
    lhand lfingers
    rclavicle rhumerus
    rhumerus rradius
    rradius rwrist
    rwrist rhand rthumb
    rhand rfingers
  end

#!OML:ASF I:\Random Stuff\random\construction\7_22_03\Session 2\subj1.ASF
:FULLY-SPECIFIED
:DEGREES
298
root 4.78701 17.4867 1.5776 -3.50559 86.8769 -9.81828
lowerback 2.38322 2.43899 2.18145
upperback -4.82569 3.39907 -1.08297
thorax -6.157 1.57864 -2.60686
lowerneck -18.3206 -0.530618 -1.57181
upperneck 19.7869 -0.815816 2.76098
head 9.27474 -0.139596 1.11197
rclavicle -3.68062e-014 -6.95746e-015
rhumerus -26.3594 11.7186 -4.7364
rradius 73.2656
rwrist -26.8937
rhand -21.87 16.4522
rfingers 7.12502
rthumb 4.5343 -13.4792
lclavicle -3.68062e-014 -6.95746e-015
lhumerus -25.0512 1.76443 -10.1995
lradius 45.7727
lwrist 39.2085
lhand -23.9182 54.2096
lfingers 7.12502
lthumb 2.55636 84.174
rfemur -7.31386 27.0784 22.0348
rtibia 21.4473
rfoot -23.2319 -42.1702
rtoes 13.4292
lfemur -16.6148 -21.2921 -16.6147
ltibia 30.0281
lfoot -19.4579 19.6353
ltoes -27.2903
299
root 4.78127 17.487 1.57961 -3.51285 86.8628 -9.74025
lowerback 2.11828 2.47696 2.1425
upperback -4.80759 3.44267 -1.09169
thorax -5.98446 1.60624 -2.582
lowerneck -18.2731 -0.538584 -1.62558
upperneck 19.8313 -0.841076 2.89298
head 9.28299 -0.139488 1.16358
rclavicle 9.49818e-015 8.74653e-015
rhumerus -23.2957 11.2721 -4.62851
rradius 73.6709
rwrist -26.8925
rhand -22.0138 16.7911
rfingers 7.12502
rthumb 4.39546 -13.1432
lclavicle 9.49818e-015 8.74653e-015
lhumerus -22.9262 2.70816 -9.75
lradius 47.2917
lwrist 40.7917
lhand -23.7432 54.8279
lfingers 7.12502
lthumb 2.72533 84.7902
rfemur -7.23027 27.083 22.0739
rtibia 21.4397
rfoot -23.1211 -42.1698
rtoes 13.2567
lfemur -16.5005 -21.4279 -16.6368
ltibia 29.984
lfoot -19.4834 19.7714
ltoes -27.2502
300
root 4.77516 17.4858 1.58014 -3.86822 86.8819 -9.9777
lowerback 1.86165 2.48269 2.12919
upperback -4.79128 3.44563 -1.08272
thorax -5.82085 1.61261 -2.55078
lowerneck -18.1937 -0.544187 -1.63266
upperneck 19.9455 -0.847488 2.90046
head 9.30851 -0.140422 1.16756
rclavicle -3.78312e-014 2.5842e-015
rhumerus -20.2544 10.8822 -4.91856
rradius 74.0608
rwrist -26.6617
rhand -22.005 16.9754
rfingers 7.12502
rthumb 4.40398 -12.9588
lclavicle -3.78312e-014 2.5842e-015
lhumerus -20.9915 3.47066 -8.9331
lradius 49.1913
lwrist 42.607
lhand -23.7253 55.0932
lfingers 7.12502
lthumb 2.74266 85.0554
rfemur -7.10257 27.0471 22.1375
rtibia 21.4224
rfoot -22.996 -42.1748
rtoes 13.0431
lfemur -16.3552 -21.6052 -16.6638
ltibia 29.9337
lfoot -19.4831 19.9385
ltoes -27.3277
301
root 4.7692 17.4857 1.58071 -4.51621 86.9401 -10.5187
lowerback 1.56382 2.46163 2.101
upperback -4.77779 3.41279 -1.0484
thorax -5.64115 1.60288 -2.48082
lowerneck -18.1684 -0.552601 -1.57559
upperneck 20.1662 -0.831681 2.71711
head 9.3793 -0.146609 1.09885
rclavicle 3.01531e-014 -1.98785e-015
rhumerus -17.1878 10.6419 -5.50926
rradius 74.3418
rwrist -26.3299
rhand -21.9942 17.0855
rfingers 7.12502
rthumb 4.41438 -12.8485
lclavicle 3.01531e-014 -1.98785e-015
lhumerus -19.1672 4.25381 -7.77481
lradius 51.2614
lwrist 44.0677
lhand -23.5621 55.2754
lfingers 7.12502
lthumb 2.90025 85.2354
rfemur -6.9919 26.9727 22.202
rtibia 21.3735
rfoot -22.5962 -42.2798
rtoes 12.3422
lfemur -16.2389 -21.6719 -16.6798
ltibia 29.8994
lfoot -19.4349 19.9752
ltoes -27.5707
302
root 4.76297 17.487 1.58208 -5.62639 87.0255 -11.5524
lowerback 1.2222 2.38368 2.0624
upperback -4.82682 3.30438 -1.03609
thorax -5.50594 1.55503 -2.42425
lowerneck -18.1173 -0.557494 -1.54311
upperneck 20.6098 -0.866509 2.81359
head 9.52644 -0.141842 1.12674
rclavicle -5.96354e-015 -7.15625e-015
rhumerus -14.2016 10.7225 -6.46918
rradius 74.4491
rwrist -26.142
rhand -21.8543 17.3687
rfingers 7.12502
rthumb 4.54948 -12.5625
lclavicle -5.96354e-015 -7.15625e-015
lhumerus -17.5009 4.92029 -6.48708
lradius 53.5617
lwrist 45.273
lhand -23.1622 55.6266
lfingers 7.12502
lthumb 3.2865 85.581
rfemur -6.91278 26.8699 22.2764
rtibia 21.3226
rfoot -22.2438 -42.3569
rtoes 11.729
lfemur -16.1684 -21.5965 -16.6603
ltibia 29.8637
lfoot -19.3267 19.8742
ltoes -27.9703
